solid OpenSCAD_Model
  facet normal 1 -0 0
    outer loop
      vertex 32 0 9.6
      vertex 32 16 0
      vertex 32 16 9.6
    endloop
  endfacet
  facet normal 1 0 0
    outer loop
      vertex 32 16 0
      vertex 32 0 9.6
      vertex 32 0 0
    endloop
  endfacet
  facet normal 0 0 1
    outer loop
      vertex 32 16 9.6
      vertex 30.4 14.4 9.6
      vertex 32 0 9.6
    endloop
  endfacet
  facet normal 0 0 1
    outer loop
      vertex 32 16 9.6
      vertex 17.6 14.4 9.6
      vertex 30.4 14.4 9.6
    endloop
  endfacet
  facet normal 0 0 1
    outer loop
      vertex 17.6 14.4 9.6
      vertex 14.4 14.4 9.6
      vertex 17.6 1.6 9.6
    endloop
  endfacet
  facet normal 0 0 1
    outer loop
      vertex 32 16 9.6
      vertex 14.4 14.4 9.6
      vertex 17.6 14.4 9.6
    endloop
  endfacet
  facet normal -0 0 1
    outer loop
      vertex 0 16 9.6
      vertex 14.4 14.4 9.6
      vertex 32 16 9.6
    endloop
  endfacet
  facet normal 0 0 1
    outer loop
      vertex 1.6 14.4 9.6
      vertex 0 16 9.6
      vertex 1.6 1.6 9.6
    endloop
  endfacet
  facet normal 0 0 1
    outer loop
      vertex 14.4 14.4 9.6
      vertex 0 16 9.6
      vertex 1.6 14.4 9.6
    endloop
  endfacet
  facet normal -0 0 1
    outer loop
      vertex 30.4 1.6 9.6
      vertex 32 0 9.6
      vertex 30.4 14.4 9.6
    endloop
  endfacet
  facet normal -0 0 1
    outer loop
      vertex 17.6 1.6 9.6
      vertex 32 0 9.6
      vertex 30.4 1.6 9.6
    endloop
  endfacet
  facet normal 0 0 1
    outer loop
      vertex 14.4 1.6 9.6
      vertex 17.6 1.6 9.6
      vertex 14.4 14.4 9.6
    endloop
  endfacet
  facet normal -0 0 1
    outer loop
      vertex 14.4 1.6 9.6
      vertex 32 0 9.6
      vertex 17.6 1.6 9.6
    endloop
  endfacet
  facet normal 0 0 1
    outer loop
      vertex 0 0 9.6
      vertex 14.4 1.6 9.6
      vertex 1.6 1.6 9.6
    endloop
  endfacet
  facet normal 0 0 1
    outer loop
      vertex 14.4 1.6 9.6
      vertex 0 0 9.6
      vertex 32 0 9.6
    endloop
  endfacet
  facet normal 0 0 1
    outer loop
      vertex 0 0 9.6
      vertex 1.6 1.6 9.6
      vertex 0 16 9.6
    endloop
  endfacet
  facet normal 0 0 -1
    outer loop
      vertex 32 0 0
      vertex 30.4 1.6 0
      vertex 32 16 0
    endloop
  endfacet
  facet normal 0 0 -1
    outer loop
      vertex 32 0 0
      vertex 1.6 1.6 0
      vertex 30.4 1.6 0
    endloop
  endfacet
  facet normal -0 0 -1
    outer loop
      vertex 1.6 1.6 0
      vertex 0 0 0
      vertex 1.6 14.4 0
    endloop
  endfacet
  facet normal 0 0 -1
    outer loop
      vertex 0 0 0
      vertex 1.6 1.6 0
      vertex 32 0 0
    endloop
  endfacet
  facet normal 0 0 -1
    outer loop
      vertex 30.4 14.4 0
      vertex 32 16 0
      vertex 30.4 1.6 0
    endloop
  endfacet
  facet normal 0 0 -1
    outer loop
      vertex 1.6 14.4 0
      vertex 32 16 0
      vertex 30.4 14.4 0
    endloop
  endfacet
  facet normal 0 0 -1
    outer loop
      vertex 1.6 14.4 0
      vertex 0 16 0
      vertex 32 16 0
    endloop
  endfacet
  facet normal 0 0 -1
    outer loop
      vertex 0 16 0
      vertex 1.6 14.4 0
      vertex 0 0 0
    endloop
  endfacet
  facet normal -1 0 0
    outer loop
      vertex 0 0 0
      vertex 0 16 9.6
      vertex 0 16 0
    endloop
  endfacet
  facet normal -1 -0 0
    outer loop
      vertex 0 16 9.6
      vertex 0 0 0
      vertex 0 0 9.6
    endloop
  endfacet
  facet normal 0 1 -0
    outer loop
      vertex 32 16 0
      vertex 0 16 9.6
      vertex 32 16 9.6
    endloop
  endfacet
  facet normal 0 1 0
    outer loop
      vertex 0 16 9.6
      vertex 32 16 0
      vertex 0 16 0
    endloop
  endfacet
  facet normal 0 -1 0
    outer loop
      vertex 0 0 0
      vertex 32 0 9.6
      vertex 0 0 9.6
    endloop
  endfacet
  facet normal 0 -1 -0
    outer loop
      vertex 32 0 9.6
      vertex 0 0 0
      vertex 32 0 0
    endloop
  endfacet
  facet normal 1 -0 0
    outer loop
      vertex 14.4 1.6 11.2
      vertex 14.4 14.4 9.6
      vertex 14.4 14.4 11.2
    endloop
  endfacet
  facet normal 1 0 0
    outer loop
      vertex 14.4 14.4 9.6
      vertex 14.4 1.6 11.2
      vertex 14.4 1.6 9.6
    endloop
  endfacet
  facet normal -0 0 1
    outer loop
      vertex 1.6 14.4 11.2
      vertex 14.4 1.6 11.2
      vertex 14.4 14.4 11.2
    endloop
  endfacet
  facet normal 0 0 1
    outer loop
      vertex 14.4 1.6 11.2
      vertex 1.6 14.4 11.2
      vertex 1.6 1.6 11.2
    endloop
  endfacet
  facet normal -1 0 0
    outer loop
      vertex 1.6 1.6 9.6
      vertex 1.6 14.4 11.2
      vertex 1.6 14.4 9.6
    endloop
  endfacet
  facet normal -1 -0 0
    outer loop
      vertex 1.6 14.4 11.2
      vertex 1.6 1.6 9.6
      vertex 1.6 1.6 11.2
    endloop
  endfacet
  facet normal 0 1 -0
    outer loop
      vertex 14.4 14.4 9.6
      vertex 1.6 14.4 11.2
      vertex 14.4 14.4 11.2
    endloop
  endfacet
  facet normal 0 1 0
    outer loop
      vertex 1.6 14.4 11.2
      vertex 14.4 14.4 9.6
      vertex 1.6 14.4 9.6
    endloop
  endfacet
  facet normal 0 -1 0
    outer loop
      vertex 1.6 1.6 9.6
      vertex 14.4 1.6 11.2
      vertex 1.6 1.6 11.2
    endloop
  endfacet
  facet normal 0 -1 -0
    outer loop
      vertex 14.4 1.6 11.2
      vertex 1.6 1.6 9.6
      vertex 14.4 1.6 9.6
    endloop
  endfacet
  facet normal 1 -0 0
    outer loop
      vertex 30.4 1.6 11.2
      vertex 30.4 14.4 9.6
      vertex 30.4 14.4 11.2
    endloop
  endfacet
  facet normal 1 0 0
    outer loop
      vertex 30.4 14.4 9.6
      vertex 30.4 1.6 11.2
      vertex 30.4 1.6 9.6
    endloop
  endfacet
  facet normal -0 0 1
    outer loop
      vertex 17.6 14.4 11.2
      vertex 30.4 1.6 11.2
      vertex 30.4 14.4 11.2
    endloop
  endfacet
  facet normal 0 0 1
    outer loop
      vertex 30.4 1.6 11.2
      vertex 17.6 14.4 11.2
      vertex 17.6 1.6 11.2
    endloop
  endfacet
  facet normal -1 0 0
    outer loop
      vertex 17.6 1.6 9.6
      vertex 17.6 14.4 11.2
      vertex 17.6 14.4 9.6
    endloop
  endfacet
  facet normal -1 -0 0
    outer loop
      vertex 17.6 14.4 11.2
      vertex 17.6 1.6 9.6
      vertex 17.6 1.6 11.2
    endloop
  endfacet
  facet normal 0 1 -0
    outer loop
      vertex 30.4 14.4 9.6
      vertex 17.6 14.4 11.2
      vertex 30.4 14.4 11.2
    endloop
  endfacet
  facet normal 0 1 0
    outer loop
      vertex 17.6 14.4 11.2
      vertex 30.4 14.4 9.6
      vertex 17.6 14.4 9.6
    endloop
  endfacet
  facet normal 0 -1 0
    outer loop
      vertex 17.6 1.6 9.6
      vertex 30.4 1.6 11.2
      vertex 17.6 1.6 11.2
    endloop
  endfacet
  facet normal 0 -1 -0
    outer loop
      vertex 30.4 1.6 11.2
      vertex 17.6 1.6 9.6
      vertex 30.4 1.6 9.6
    endloop
  endfacet
  facet normal -1 0 0
    outer loop
      vertex 30.4 1.6 0
      vertex 30.4 14.4 8
      vertex 30.4 14.4 0
    endloop
  endfacet
  facet normal -1 -0 0
    outer loop
      vertex 30.4 14.4 8
      vertex 30.4 1.6 0
      vertex 30.4 1.6 8
    endloop
  endfacet
  facet normal 0 0 -1
    outer loop
      vertex 30.4 1.6 8
      vertex 27.2 4.8 8
      vertex 30.4 14.4 8
    endloop
  endfacet
  facet normal 0 0 -1
    outer loop
      vertex 30.4 1.6 8
      vertex 20.8 4.8 8
      vertex 27.2 4.8 8
    endloop
  endfacet
  facet normal 0 0 -1
    outer loop
      vertex 20.8 4.8 8
      vertex 11.2 4.8 8
      vertex 20.8 11.2 8
    endloop
  endfacet
  facet normal 0 0 -1
    outer loop
      vertex 30.4 1.6 8
      vertex 11.2 4.8 8
      vertex 20.8 4.8 8
    endloop
  endfacet
  facet normal 0 0 -1
    outer loop
      vertex 1.6 1.6 8
      vertex 11.2 4.8 8
      vertex 30.4 1.6 8
    endloop
  endfacet
  facet normal -0 0 -1
    outer loop
      vertex 4.8 4.8 8
      vertex 1.6 1.6 8
      vertex 4.8 11.2 8
    endloop
  endfacet
  facet normal -0 0 -1
    outer loop
      vertex 11.2 4.8 8
      vertex 1.6 1.6 8
      vertex 4.8 4.8 8
    endloop
  endfacet
  facet normal 0 0 -1
    outer loop
      vertex 27.2 11.2 8
      vertex 30.4 14.4 8
      vertex 27.2 4.8 8
    endloop
  endfacet
  facet normal 0 0 -1
    outer loop
      vertex 20.8 11.2 8
      vertex 30.4 14.4 8
      vertex 27.2 11.2 8
    endloop
  endfacet
  facet normal 0 0 -1
    outer loop
      vertex 11.2 11.2 8
      vertex 20.8 11.2 8
      vertex 11.2 4.8 8
    endloop
  endfacet
  facet normal 0 0 -1
    outer loop
      vertex 11.2 11.2 8
      vertex 30.4 14.4 8
      vertex 20.8 11.2 8
    endloop
  endfacet
  facet normal 0 0 -1
    outer loop
      vertex 1.6 14.4 8
      vertex 11.2 11.2 8
      vertex 4.8 11.2 8
    endloop
  endfacet
  facet normal 0 0 -1
    outer loop
      vertex 11.2 11.2 8
      vertex 1.6 14.4 8
      vertex 30.4 14.4 8
    endloop
  endfacet
  facet normal 0 0 -1
    outer loop
      vertex 1.6 14.4 8
      vertex 4.8 11.2 8
      vertex 1.6 1.6 8
    endloop
  endfacet
  facet normal 1 -0 0
    outer loop
      vertex 1.6 1.6 8
      vertex 1.6 14.4 0
      vertex 1.6 14.4 8
    endloop
  endfacet
  facet normal 1 0 0
    outer loop
      vertex 1.6 14.4 0
      vertex 1.6 1.6 8
      vertex 1.6 1.6 0
    endloop
  endfacet
  facet normal 0 -1 0
    outer loop
      vertex 1.6 14.4 0
      vertex 30.4 14.4 8
      vertex 1.6 14.4 8
    endloop
  endfacet
  facet normal 0 -1 -0
    outer loop
      vertex 30.4 14.4 8
      vertex 1.6 14.4 0
      vertex 30.4 14.4 0
    endloop
  endfacet
  facet normal 0 1 -0
    outer loop
      vertex 30.4 1.6 0
      vertex 1.6 1.6 8
      vertex 30.4 1.6 8
    endloop
  endfacet
  facet normal 0 1 0
    outer loop
      vertex 1.6 1.6 8
      vertex 30.4 1.6 0
      vertex 1.6 1.6 0
    endloop
  endfacet
  facet normal -1 0 0
    outer loop
      vertex 11.2 4.8 8
      vertex 11.2 11.2 9.6
      vertex 11.2 11.2 8
    endloop
  endfacet
  facet normal -1 -0 0
    outer loop
      vertex 11.2 11.2 9.6
      vertex 11.2 4.8 8
      vertex 11.2 4.8 9.6
    endloop
  endfacet
  facet normal 0 0 -1
    outer loop
      vertex 4.8 4.8 9.6
      vertex 11.2 11.2 9.6
      vertex 11.2 4.8 9.6
    endloop
  endfacet
  facet normal -0 0 -1
    outer loop
      vertex 11.2 11.2 9.6
      vertex 4.8 4.8 9.6
      vertex 4.8 11.2 9.6
    endloop
  endfacet
  facet normal 1 -0 0
    outer loop
      vertex 4.8 4.8 9.6
      vertex 4.8 11.2 8
      vertex 4.8 11.2 9.6
    endloop
  endfacet
  facet normal 1 0 0
    outer loop
      vertex 4.8 11.2 8
      vertex 4.8 4.8 9.6
      vertex 4.8 4.8 8
    endloop
  endfacet
  facet normal 0 -1 0
    outer loop
      vertex 4.8 11.2 8
      vertex 11.2 11.2 9.6
      vertex 4.8 11.2 9.6
    endloop
  endfacet
  facet normal 0 -1 -0
    outer loop
      vertex 11.2 11.2 9.6
      vertex 4.8 11.2 8
      vertex 11.2 11.2 8
    endloop
  endfacet
  facet normal 0 1 -0
    outer loop
      vertex 11.2 4.8 8
      vertex 4.8 4.8 9.6
      vertex 11.2 4.8 9.6
    endloop
  endfacet
  facet normal 0 1 0
    outer loop
      vertex 4.8 4.8 9.6
      vertex 11.2 4.8 8
      vertex 4.8 4.8 8
    endloop
  endfacet
  facet normal -1 0 0
    outer loop
      vertex 27.2 4.8 8
      vertex 27.2 11.2 9.6
      vertex 27.2 11.2 8
    endloop
  endfacet
  facet normal -1 -0 0
    outer loop
      vertex 27.2 11.2 9.6
      vertex 27.2 4.8 8
      vertex 27.2 4.8 9.6
    endloop
  endfacet
  facet normal 0 0 -1
    outer loop
      vertex 20.8 4.8 9.6
      vertex 27.2 11.2 9.6
      vertex 27.2 4.8 9.6
    endloop
  endfacet
  facet normal -0 0 -1
    outer loop
      vertex 27.2 11.2 9.6
      vertex 20.8 4.8 9.6
      vertex 20.8 11.2 9.6
    endloop
  endfacet
  facet normal 1 -0 0
    outer loop
      vertex 20.8 4.8 9.6
      vertex 20.8 11.2 8
      vertex 20.8 11.2 9.6
    endloop
  endfacet
  facet normal 1 0 0
    outer loop
      vertex 20.8 11.2 8
      vertex 20.8 4.8 9.6
      vertex 20.8 4.8 8
    endloop
  endfacet
  facet normal 0 -1 0
    outer loop
      vertex 20.8 11.2 8
      vertex 27.2 11.2 9.6
      vertex 20.8 11.2 9.6
    endloop
  endfacet
  facet normal 0 -1 -0
    outer loop
      vertex 27.2 11.2 9.6
      vertex 20.8 11.2 8
      vertex 27.2 11.2 8
    endloop
  endfacet
  facet normal 0 1 -0
    outer loop
      vertex 27.2 4.8 8
      vertex 20.8 4.8 9.6
      vertex 27.2 4.8 9.6
    endloop
  endfacet
  facet normal 0 1 0
    outer loop
      vertex 20.8 4.8 9.6
      vertex 27.2 4.8 8
      vertex 20.8 4.8 8
    endloop
  endfacet
  facet normal 1 -0 0
    outer loop
      vertex 32 17.6 9.6
      vertex 32 33.6 0
      vertex 32 33.6 9.6
    endloop
  endfacet
  facet normal 1 0 0
    outer loop
      vertex 32 33.6 0
      vertex 32 17.6 9.6
      vertex 32 17.6 0
    endloop
  endfacet
  facet normal 0 0 1
    outer loop
      vertex 32 33.6 9.6
      vertex 30.4 32 9.6
      vertex 32 17.6 9.6
    endloop
  endfacet
  facet normal 0 0 1
    outer loop
      vertex 32 33.6 9.6
      vertex 17.6 32 9.6
      vertex 30.4 32 9.6
    endloop
  endfacet
  facet normal 0 0 1
    outer loop
      vertex 17.6 32 9.6
      vertex 14.4 32 9.6
      vertex 17.6 19.2 9.6
    endloop
  endfacet
  facet normal 0 0 1
    outer loop
      vertex 32 33.6 9.6
      vertex 14.4 32 9.6
      vertex 17.6 32 9.6
    endloop
  endfacet
  facet normal -0 0 1
    outer loop
      vertex 0 33.6 9.6
      vertex 14.4 32 9.6
      vertex 32 33.6 9.6
    endloop
  endfacet
  facet normal 0 0 1
    outer loop
      vertex 1.6 32 9.6
      vertex 0 33.6 9.6
      vertex 1.6 19.2 9.6
    endloop
  endfacet
  facet normal 0 0 1
    outer loop
      vertex 14.4 32 9.6
      vertex 0 33.6 9.6
      vertex 1.6 32 9.6
    endloop
  endfacet
  facet normal -0 0 1
    outer loop
      vertex 30.4 19.2 9.6
      vertex 32 17.6 9.6
      vertex 30.4 32 9.6
    endloop
  endfacet
  facet normal -0 0 1
    outer loop
      vertex 17.6 19.2 9.6
      vertex 32 17.6 9.6
      vertex 30.4 19.2 9.6
    endloop
  endfacet
  facet normal 0 0 1
    outer loop
      vertex 14.4 19.2 9.6
      vertex 17.6 19.2 9.6
      vertex 14.4 32 9.6
    endloop
  endfacet
  facet normal -0 0 1
    outer loop
      vertex 14.4 19.2 9.6
      vertex 32 17.6 9.6
      vertex 17.6 19.2 9.6
    endloop
  endfacet
  facet normal 0 0 1
    outer loop
      vertex 0 17.6 9.6
      vertex 14.4 19.2 9.6
      vertex 1.6 19.2 9.6
    endloop
  endfacet
  facet normal 0 0 1
    outer loop
      vertex 14.4 19.2 9.6
      vertex 0 17.6 9.6
      vertex 32 17.6 9.6
    endloop
  endfacet
  facet normal 0 0 1
    outer loop
      vertex 0 17.6 9.6
      vertex 1.6 19.2 9.6
      vertex 0 33.6 9.6
    endloop
  endfacet
  facet normal 0 0 -1
    outer loop
      vertex 32 17.6 0
      vertex 30.4 19.2 0
      vertex 32 33.6 0
    endloop
  endfacet
  facet normal 0 0 -1
    outer loop
      vertex 32 17.6 0
      vertex 1.6 19.2 0
      vertex 30.4 19.2 0
    endloop
  endfacet
  facet normal -0 0 -1
    outer loop
      vertex 1.6 19.2 0
      vertex 0 17.6 0
      vertex 1.6 32 0
    endloop
  endfacet
  facet normal 0 0 -1
    outer loop
      vertex 0 17.6 0
      vertex 1.6 19.2 0
      vertex 32 17.6 0
    endloop
  endfacet
  facet normal 0 0 -1
    outer loop
      vertex 30.4 32 0
      vertex 32 33.6 0
      vertex 30.4 19.2 0
    endloop
  endfacet
  facet normal 0 0 -1
    outer loop
      vertex 1.6 32 0
      vertex 32 33.6 0
      vertex 30.4 32 0
    endloop
  endfacet
  facet normal 0 0 -1
    outer loop
      vertex 1.6 32 0
      vertex 0 33.6 0
      vertex 32 33.6 0
    endloop
  endfacet
  facet normal 0 0 -1
    outer loop
      vertex 0 33.6 0
      vertex 1.6 32 0
      vertex 0 17.6 0
    endloop
  endfacet
  facet normal -1 0 0
    outer loop
      vertex 0 17.6 0
      vertex 0 33.6 9.6
      vertex 0 33.6 0
    endloop
  endfacet
  facet normal -1 -0 0
    outer loop
      vertex 0 33.6 9.6
      vertex 0 17.6 0
      vertex 0 17.6 9.6
    endloop
  endfacet
  facet normal 0 1 -0
    outer loop
      vertex 32 33.6 0
      vertex 0 33.6 9.6
      vertex 32 33.6 9.6
    endloop
  endfacet
  facet normal 0 1 0
    outer loop
      vertex 0 33.6 9.6
      vertex 32 33.6 0
      vertex 0 33.6 0
    endloop
  endfacet
  facet normal 0 -1 0
    outer loop
      vertex 0 17.6 0
      vertex 32 17.6 9.6
      vertex 0 17.6 9.6
    endloop
  endfacet
  facet normal 0 -1 -0
    outer loop
      vertex 32 17.6 9.6
      vertex 0 17.6 0
      vertex 32 17.6 0
    endloop
  endfacet
  facet normal 1 -0 0
    outer loop
      vertex 14.4 19.2 11.2
      vertex 14.4 32 9.6
      vertex 14.4 32 11.2
    endloop
  endfacet
  facet normal 1 0 0
    outer loop
      vertex 14.4 32 9.6
      vertex 14.4 19.2 11.2
      vertex 14.4 19.2 9.6
    endloop
  endfacet
  facet normal -0 0 1
    outer loop
      vertex 1.6 32 11.2
      vertex 14.4 19.2 11.2
      vertex 14.4 32 11.2
    endloop
  endfacet
  facet normal 0 0 1
    outer loop
      vertex 14.4 19.2 11.2
      vertex 1.6 32 11.2
      vertex 1.6 19.2 11.2
    endloop
  endfacet
  facet normal -1 0 0
    outer loop
      vertex 1.6 19.2 9.6
      vertex 1.6 32 11.2
      vertex 1.6 32 9.6
    endloop
  endfacet
  facet normal -1 -0 0
    outer loop
      vertex 1.6 32 11.2
      vertex 1.6 19.2 9.6
      vertex 1.6 19.2 11.2
    endloop
  endfacet
  facet normal 0 1 -0
    outer loop
      vertex 14.4 32 9.6
      vertex 1.6 32 11.2
      vertex 14.4 32 11.2
    endloop
  endfacet
  facet normal 0 1 0
    outer loop
      vertex 1.6 32 11.2
      vertex 14.4 32 9.6
      vertex 1.6 32 9.6
    endloop
  endfacet
  facet normal 0 -1 0
    outer loop
      vertex 1.6 19.2 9.6
      vertex 14.4 19.2 11.2
      vertex 1.6 19.2 11.2
    endloop
  endfacet
  facet normal 0 -1 -0
    outer loop
      vertex 14.4 19.2 11.2
      vertex 1.6 19.2 9.6
      vertex 14.4 19.2 9.6
    endloop
  endfacet
  facet normal 1 -0 0
    outer loop
      vertex 30.4 19.2 11.2
      vertex 30.4 32 9.6
      vertex 30.4 32 11.2
    endloop
  endfacet
  facet normal 1 0 0
    outer loop
      vertex 30.4 32 9.6
      vertex 30.4 19.2 11.2
      vertex 30.4 19.2 9.6
    endloop
  endfacet
  facet normal -0 0 1
    outer loop
      vertex 17.6 32 11.2
      vertex 30.4 19.2 11.2
      vertex 30.4 32 11.2
    endloop
  endfacet
  facet normal 0 0 1
    outer loop
      vertex 30.4 19.2 11.2
      vertex 17.6 32 11.2
      vertex 17.6 19.2 11.2
    endloop
  endfacet
  facet normal -1 0 0
    outer loop
      vertex 17.6 19.2 9.6
      vertex 17.6 32 11.2
      vertex 17.6 32 9.6
    endloop
  endfacet
  facet normal -1 -0 0
    outer loop
      vertex 17.6 32 11.2
      vertex 17.6 19.2 9.6
      vertex 17.6 19.2 11.2
    endloop
  endfacet
  facet normal 0 1 -0
    outer loop
      vertex 30.4 32 9.6
      vertex 17.6 32 11.2
      vertex 30.4 32 11.2
    endloop
  endfacet
  facet normal 0 1 0
    outer loop
      vertex 17.6 32 11.2
      vertex 30.4 32 9.6
      vertex 17.6 32 9.6
    endloop
  endfacet
  facet normal 0 -1 0
    outer loop
      vertex 17.6 19.2 9.6
      vertex 30.4 19.2 11.2
      vertex 17.6 19.2 11.2
    endloop
  endfacet
  facet normal 0 -1 -0
    outer loop
      vertex 30.4 19.2 11.2
      vertex 17.6 19.2 9.6
      vertex 30.4 19.2 9.6
    endloop
  endfacet
  facet normal -1 0 0
    outer loop
      vertex 30.4 19.2 0
      vertex 30.4 32 8
      vertex 30.4 32 0
    endloop
  endfacet
  facet normal -1 -0 0
    outer loop
      vertex 30.4 32 8
      vertex 30.4 19.2 0
      vertex 30.4 19.2 8
    endloop
  endfacet
  facet normal 0 0 -1
    outer loop
      vertex 30.4 19.2 8
      vertex 27.2 22.4 8
      vertex 30.4 32 8
    endloop
  endfacet
  facet normal 0 0 -1
    outer loop
      vertex 30.4 19.2 8
      vertex 20.8 22.4 8
      vertex 27.2 22.4 8
    endloop
  endfacet
  facet normal 0 0 -1
    outer loop
      vertex 20.8 22.4 8
      vertex 11.2 22.4 8
      vertex 20.8 28.8 8
    endloop
  endfacet
  facet normal 0 0 -1
    outer loop
      vertex 30.4 19.2 8
      vertex 11.2 22.4 8
      vertex 20.8 22.4 8
    endloop
  endfacet
  facet normal 0 0 -1
    outer loop
      vertex 1.6 19.2 8
      vertex 11.2 22.4 8
      vertex 30.4 19.2 8
    endloop
  endfacet
  facet normal -0 0 -1
    outer loop
      vertex 4.8 22.4 8
      vertex 1.6 19.2 8
      vertex 4.8 28.8 8
    endloop
  endfacet
  facet normal -0 0 -1
    outer loop
      vertex 11.2 22.4 8
      vertex 1.6 19.2 8
      vertex 4.8 22.4 8
    endloop
  endfacet
  facet normal 0 0 -1
    outer loop
      vertex 27.2 28.8 8
      vertex 30.4 32 8
      vertex 27.2 22.4 8
    endloop
  endfacet
  facet normal 0 0 -1
    outer loop
      vertex 20.8 28.8 8
      vertex 30.4 32 8
      vertex 27.2 28.8 8
    endloop
  endfacet
  facet normal 0 0 -1
    outer loop
      vertex 11.2 28.8 8
      vertex 20.8 28.8 8
      vertex 11.2 22.4 8
    endloop
  endfacet
  facet normal 0 0 -1
    outer loop
      vertex 11.2 28.8 8
      vertex 30.4 32 8
      vertex 20.8 28.8 8
    endloop
  endfacet
  facet normal 0 0 -1
    outer loop
      vertex 1.6 32 8
      vertex 11.2 28.8 8
      vertex 4.8 28.8 8
    endloop
  endfacet
  facet normal 0 0 -1
    outer loop
      vertex 11.2 28.8 8
      vertex 1.6 32 8
      vertex 30.4 32 8
    endloop
  endfacet
  facet normal 0 0 -1
    outer loop
      vertex 1.6 32 8
      vertex 4.8 28.8 8
      vertex 1.6 19.2 8
    endloop
  endfacet
  facet normal 1 -0 0
    outer loop
      vertex 1.6 19.2 8
      vertex 1.6 32 0
      vertex 1.6 32 8
    endloop
  endfacet
  facet normal 1 0 0
    outer loop
      vertex 1.6 32 0
      vertex 1.6 19.2 8
      vertex 1.6 19.2 0
    endloop
  endfacet
  facet normal 0 -1 0
    outer loop
      vertex 1.6 32 0
      vertex 30.4 32 8
      vertex 1.6 32 8
    endloop
  endfacet
  facet normal 0 -1 -0
    outer loop
      vertex 30.4 32 8
      vertex 1.6 32 0
      vertex 30.4 32 0
    endloop
  endfacet
  facet normal 0 1 -0
    outer loop
      vertex 30.4 19.2 0
      vertex 1.6 19.2 8
      vertex 30.4 19.2 8
    endloop
  endfacet
  facet normal 0 1 0
    outer loop
      vertex 1.6 19.2 8
      vertex 30.4 19.2 0
      vertex 1.6 19.2 0
    endloop
  endfacet
  facet normal -1 0 0
    outer loop
      vertex 11.2 22.4 8
      vertex 11.2 28.8 9.6
      vertex 11.2 28.8 8
    endloop
  endfacet
  facet normal -1 -0 0
    outer loop
      vertex 11.2 28.8 9.6
      vertex 11.2 22.4 8
      vertex 11.2 22.4 9.6
    endloop
  endfacet
  facet normal 0 0 -1
    outer loop
      vertex 4.8 22.4 9.6
      vertex 11.2 28.8 9.6
      vertex 11.2 22.4 9.6
    endloop
  endfacet
  facet normal -0 0 -1
    outer loop
      vertex 11.2 28.8 9.6
      vertex 4.8 22.4 9.6
      vertex 4.8 28.8 9.6
    endloop
  endfacet
  facet normal 1 -0 0
    outer loop
      vertex 4.8 22.4 9.6
      vertex 4.8 28.8 8
      vertex 4.8 28.8 9.6
    endloop
  endfacet
  facet normal 1 0 0
    outer loop
      vertex 4.8 28.8 8
      vertex 4.8 22.4 9.6
      vertex 4.8 22.4 8
    endloop
  endfacet
  facet normal 0 -1 0
    outer loop
      vertex 4.8 28.8 8
      vertex 11.2 28.8 9.6
      vertex 4.8 28.8 9.6
    endloop
  endfacet
  facet normal 0 -1 -0
    outer loop
      vertex 11.2 28.8 9.6
      vertex 4.8 28.8 8
      vertex 11.2 28.8 8
    endloop
  endfacet
  facet normal 0 1 -0
    outer loop
      vertex 11.2 22.4 8
      vertex 4.8 22.4 9.6
      vertex 11.2 22.4 9.6
    endloop
  endfacet
  facet normal 0 1 0
    outer loop
      vertex 4.8 22.4 9.6
      vertex 11.2 22.4 8
      vertex 4.8 22.4 8
    endloop
  endfacet
  facet normal -1 0 0
    outer loop
      vertex 27.2 22.4 8
      vertex 27.2 28.8 9.6
      vertex 27.2 28.8 8
    endloop
  endfacet
  facet normal -1 -0 0
    outer loop
      vertex 27.2 28.8 9.6
      vertex 27.2 22.4 8
      vertex 27.2 22.4 9.6
    endloop
  endfacet
  facet normal 0 0 -1
    outer loop
      vertex 20.8 22.4 9.6
      vertex 27.2 28.8 9.6
      vertex 27.2 22.4 9.6
    endloop
  endfacet
  facet normal -0 0 -1
    outer loop
      vertex 27.2 28.8 9.6
      vertex 20.8 22.4 9.6
      vertex 20.8 28.8 9.6
    endloop
  endfacet
  facet normal 1 -0 0
    outer loop
      vertex 20.8 22.4 9.6
      vertex 20.8 28.8 8
      vertex 20.8 28.8 9.6
    endloop
  endfacet
  facet normal 1 0 0
    outer loop
      vertex 20.8 28.8 8
      vertex 20.8 22.4 9.6
      vertex 20.8 22.4 8
    endloop
  endfacet
  facet normal 0 -1 0
    outer loop
      vertex 20.8 28.8 8
      vertex 27.2 28.8 9.6
      vertex 20.8 28.8 9.6
    endloop
  endfacet
  facet normal 0 -1 -0
    outer loop
      vertex 27.2 28.8 9.6
      vertex 20.8 28.8 8
      vertex 27.2 28.8 8
    endloop
  endfacet
  facet normal 0 1 -0
    outer loop
      vertex 27.2 22.4 8
      vertex 20.8 22.4 9.6
      vertex 27.2 22.4 9.6
    endloop
  endfacet
  facet normal 0 1 0
    outer loop
      vertex 20.8 22.4 9.6
      vertex 27.2 22.4 8
      vertex 20.8 22.4 8
    endloop
  endfacet
  facet normal 1 -0 0
    outer loop
      vertex 65.6 0 9.6
      vertex 65.6 16 0
      vertex 65.6 16 9.6
    endloop
  endfacet
  facet normal 1 0 0
    outer loop
      vertex 65.6 16 0
      vertex 65.6 0 9.6
      vertex 65.6 0 0
    endloop
  endfacet
  facet normal 0 0 1
    outer loop
      vertex 65.6 16 9.6
      vertex 64 14.4 9.6
      vertex 65.6 0 9.6
    endloop
  endfacet
  facet normal 0 0 1
    outer loop
      vertex 65.6 16 9.6
      vertex 51.2 14.4 9.6
      vertex 64 14.4 9.6
    endloop
  endfacet
  facet normal 0 0 1
    outer loop
      vertex 51.2 14.4 9.6
      vertex 48 14.4 9.6
      vertex 51.2 1.6 9.6
    endloop
  endfacet
  facet normal 0 0 1
    outer loop
      vertex 65.6 16 9.6
      vertex 48 14.4 9.6
      vertex 51.2 14.4 9.6
    endloop
  endfacet
  facet normal -0 0 1
    outer loop
      vertex 33.6 16 9.6
      vertex 48 14.4 9.6
      vertex 65.6 16 9.6
    endloop
  endfacet
  facet normal 0 0 1
    outer loop
      vertex 35.2 14.4 9.6
      vertex 33.6 16 9.6
      vertex 35.2 1.6 9.6
    endloop
  endfacet
  facet normal 0 0 1
    outer loop
      vertex 48 14.4 9.6
      vertex 33.6 16 9.6
      vertex 35.2 14.4 9.6
    endloop
  endfacet
  facet normal -0 0 1
    outer loop
      vertex 64 1.6 9.6
      vertex 65.6 0 9.6
      vertex 64 14.4 9.6
    endloop
  endfacet
  facet normal -0 0 1
    outer loop
      vertex 51.2 1.6 9.6
      vertex 65.6 0 9.6
      vertex 64 1.6 9.6
    endloop
  endfacet
  facet normal 0 0 1
    outer loop
      vertex 48 1.6 9.6
      vertex 51.2 1.6 9.6
      vertex 48 14.4 9.6
    endloop
  endfacet
  facet normal -0 0 1
    outer loop
      vertex 48 1.6 9.6
      vertex 65.6 0 9.6
      vertex 51.2 1.6 9.6
    endloop
  endfacet
  facet normal 0 0 1
    outer loop
      vertex 33.6 0 9.6
      vertex 48 1.6 9.6
      vertex 35.2 1.6 9.6
    endloop
  endfacet
  facet normal 0 0 1
    outer loop
      vertex 48 1.6 9.6
      vertex 33.6 0 9.6
      vertex 65.6 0 9.6
    endloop
  endfacet
  facet normal 0 0 1
    outer loop
      vertex 33.6 0 9.6
      vertex 35.2 1.6 9.6
      vertex 33.6 16 9.6
    endloop
  endfacet
  facet normal 0 0 -1
    outer loop
      vertex 65.6 0 0
      vertex 64 1.6 0
      vertex 65.6 16 0
    endloop
  endfacet
  facet normal 0 0 -1
    outer loop
      vertex 65.6 0 0
      vertex 35.2 1.6 0
      vertex 64 1.6 0
    endloop
  endfacet
  facet normal -0 0 -1
    outer loop
      vertex 35.2 1.6 0
      vertex 33.6 0 0
      vertex 35.2 14.4 0
    endloop
  endfacet
  facet normal 0 0 -1
    outer loop
      vertex 33.6 0 0
      vertex 35.2 1.6 0
      vertex 65.6 0 0
    endloop
  endfacet
  facet normal 0 0 -1
    outer loop
      vertex 64 14.4 0
      vertex 65.6 16 0
      vertex 64 1.6 0
    endloop
  endfacet
  facet normal 0 0 -1
    outer loop
      vertex 35.2 14.4 0
      vertex 65.6 16 0
      vertex 64 14.4 0
    endloop
  endfacet
  facet normal 0 0 -1
    outer loop
      vertex 35.2 14.4 0
      vertex 33.6 16 0
      vertex 65.6 16 0
    endloop
  endfacet
  facet normal 0 0 -1
    outer loop
      vertex 33.6 16 0
      vertex 35.2 14.4 0
      vertex 33.6 0 0
    endloop
  endfacet
  facet normal -1 0 0
    outer loop
      vertex 33.6 0 0
      vertex 33.6 16 9.6
      vertex 33.6 16 0
    endloop
  endfacet
  facet normal -1 -0 0
    outer loop
      vertex 33.6 16 9.6
      vertex 33.6 0 0
      vertex 33.6 0 9.6
    endloop
  endfacet
  facet normal 0 1 -0
    outer loop
      vertex 65.6 16 0
      vertex 33.6 16 9.6
      vertex 65.6 16 9.6
    endloop
  endfacet
  facet normal 0 1 0
    outer loop
      vertex 33.6 16 9.6
      vertex 65.6 16 0
      vertex 33.6 16 0
    endloop
  endfacet
  facet normal 0 -1 0
    outer loop
      vertex 33.6 0 0
      vertex 65.6 0 9.6
      vertex 33.6 0 9.6
    endloop
  endfacet
  facet normal 0 -1 -0
    outer loop
      vertex 65.6 0 9.6
      vertex 33.6 0 0
      vertex 65.6 0 0
    endloop
  endfacet
  facet normal 1 -0 0
    outer loop
      vertex 48 1.6 11.2
      vertex 48 14.4 9.6
      vertex 48 14.4 11.2
    endloop
  endfacet
  facet normal 1 0 0
    outer loop
      vertex 48 14.4 9.6
      vertex 48 1.6 11.2
      vertex 48 1.6 9.6
    endloop
  endfacet
  facet normal -0 0 1
    outer loop
      vertex 35.2 14.4 11.2
      vertex 48 1.6 11.2
      vertex 48 14.4 11.2
    endloop
  endfacet
  facet normal 0 0 1
    outer loop
      vertex 48 1.6 11.2
      vertex 35.2 14.4 11.2
      vertex 35.2 1.6 11.2
    endloop
  endfacet
  facet normal -1 0 0
    outer loop
      vertex 35.2 1.6 9.6
      vertex 35.2 14.4 11.2
      vertex 35.2 14.4 9.6
    endloop
  endfacet
  facet normal -1 -0 0
    outer loop
      vertex 35.2 14.4 11.2
      vertex 35.2 1.6 9.6
      vertex 35.2 1.6 11.2
    endloop
  endfacet
  facet normal 0 1 -0
    outer loop
      vertex 48 14.4 9.6
      vertex 35.2 14.4 11.2
      vertex 48 14.4 11.2
    endloop
  endfacet
  facet normal 0 1 0
    outer loop
      vertex 35.2 14.4 11.2
      vertex 48 14.4 9.6
      vertex 35.2 14.4 9.6
    endloop
  endfacet
  facet normal 0 -1 0
    outer loop
      vertex 35.2 1.6 9.6
      vertex 48 1.6 11.2
      vertex 35.2 1.6 11.2
    endloop
  endfacet
  facet normal 0 -1 -0
    outer loop
      vertex 48 1.6 11.2
      vertex 35.2 1.6 9.6
      vertex 48 1.6 9.6
    endloop
  endfacet
  facet normal 1 -0 0
    outer loop
      vertex 64 1.6 11.2
      vertex 64 14.4 9.6
      vertex 64 14.4 11.2
    endloop
  endfacet
  facet normal 1 0 0
    outer loop
      vertex 64 14.4 9.6
      vertex 64 1.6 11.2
      vertex 64 1.6 9.6
    endloop
  endfacet
  facet normal -0 0 1
    outer loop
      vertex 51.2 14.4 11.2
      vertex 64 1.6 11.2
      vertex 64 14.4 11.2
    endloop
  endfacet
  facet normal 0 0 1
    outer loop
      vertex 64 1.6 11.2
      vertex 51.2 14.4 11.2
      vertex 51.2 1.6 11.2
    endloop
  endfacet
  facet normal -1 0 0
    outer loop
      vertex 51.2 1.6 9.6
      vertex 51.2 14.4 11.2
      vertex 51.2 14.4 9.6
    endloop
  endfacet
  facet normal -1 -0 0
    outer loop
      vertex 51.2 14.4 11.2
      vertex 51.2 1.6 9.6
      vertex 51.2 1.6 11.2
    endloop
  endfacet
  facet normal 0 1 -0
    outer loop
      vertex 64 14.4 9.6
      vertex 51.2 14.4 11.2
      vertex 64 14.4 11.2
    endloop
  endfacet
  facet normal 0 1 0
    outer loop
      vertex 51.2 14.4 11.2
      vertex 64 14.4 9.6
      vertex 51.2 14.4 9.6
    endloop
  endfacet
  facet normal 0 -1 0
    outer loop
      vertex 51.2 1.6 9.6
      vertex 64 1.6 11.2
      vertex 51.2 1.6 11.2
    endloop
  endfacet
  facet normal 0 -1 -0
    outer loop
      vertex 64 1.6 11.2
      vertex 51.2 1.6 9.6
      vertex 64 1.6 9.6
    endloop
  endfacet
  facet normal -1 0 0
    outer loop
      vertex 64 1.6 0
      vertex 64 14.4 8
      vertex 64 14.4 0
    endloop
  endfacet
  facet normal -1 -0 0
    outer loop
      vertex 64 14.4 8
      vertex 64 1.6 0
      vertex 64 1.6 8
    endloop
  endfacet
  facet normal 0 0 -1
    outer loop
      vertex 64 1.6 8
      vertex 60.8 4.8 8
      vertex 64 14.4 8
    endloop
  endfacet
  facet normal 0 0 -1
    outer loop
      vertex 64 1.6 8
      vertex 54.4 4.8 8
      vertex 60.8 4.8 8
    endloop
  endfacet
  facet normal 0 0 -1
    outer loop
      vertex 54.4 4.8 8
      vertex 44.8 4.8 8
      vertex 54.4 11.2 8
    endloop
  endfacet
  facet normal 0 0 -1
    outer loop
      vertex 64 1.6 8
      vertex 44.8 4.8 8
      vertex 54.4 4.8 8
    endloop
  endfacet
  facet normal 0 0 -1
    outer loop
      vertex 35.2 1.6 8
      vertex 44.8 4.8 8
      vertex 64 1.6 8
    endloop
  endfacet
  facet normal -0 0 -1
    outer loop
      vertex 38.4 4.8 8
      vertex 35.2 1.6 8
      vertex 38.4 11.2 8
    endloop
  endfacet
  facet normal -0 0 -1
    outer loop
      vertex 44.8 4.8 8
      vertex 35.2 1.6 8
      vertex 38.4 4.8 8
    endloop
  endfacet
  facet normal 0 0 -1
    outer loop
      vertex 60.8 11.2 8
      vertex 64 14.4 8
      vertex 60.8 4.8 8
    endloop
  endfacet
  facet normal 0 0 -1
    outer loop
      vertex 54.4 11.2 8
      vertex 64 14.4 8
      vertex 60.8 11.2 8
    endloop
  endfacet
  facet normal 0 0 -1
    outer loop
      vertex 44.8 11.2 8
      vertex 54.4 11.2 8
      vertex 44.8 4.8 8
    endloop
  endfacet
  facet normal 0 0 -1
    outer loop
      vertex 44.8 11.2 8
      vertex 64 14.4 8
      vertex 54.4 11.2 8
    endloop
  endfacet
  facet normal 0 0 -1
    outer loop
      vertex 35.2 14.4 8
      vertex 44.8 11.2 8
      vertex 38.4 11.2 8
    endloop
  endfacet
  facet normal 0 0 -1
    outer loop
      vertex 44.8 11.2 8
      vertex 35.2 14.4 8
      vertex 64 14.4 8
    endloop
  endfacet
  facet normal 0 0 -1
    outer loop
      vertex 35.2 14.4 8
      vertex 38.4 11.2 8
      vertex 35.2 1.6 8
    endloop
  endfacet
  facet normal 1 -0 0
    outer loop
      vertex 35.2 1.6 8
      vertex 35.2 14.4 0
      vertex 35.2 14.4 8
    endloop
  endfacet
  facet normal 1 0 0
    outer loop
      vertex 35.2 14.4 0
      vertex 35.2 1.6 8
      vertex 35.2 1.6 0
    endloop
  endfacet
  facet normal 0 -1 0
    outer loop
      vertex 35.2 14.4 0
      vertex 64 14.4 8
      vertex 35.2 14.4 8
    endloop
  endfacet
  facet normal 0 -1 -0
    outer loop
      vertex 64 14.4 8
      vertex 35.2 14.4 0
      vertex 64 14.4 0
    endloop
  endfacet
  facet normal 0 1 -0
    outer loop
      vertex 64 1.6 0
      vertex 35.2 1.6 8
      vertex 64 1.6 8
    endloop
  endfacet
  facet normal 0 1 0
    outer loop
      vertex 35.2 1.6 8
      vertex 64 1.6 0
      vertex 35.2 1.6 0
    endloop
  endfacet
  facet normal -1 0 0
    outer loop
      vertex 44.8 4.8 8
      vertex 44.8 11.2 9.6
      vertex 44.8 11.2 8
    endloop
  endfacet
  facet normal -1 -0 0
    outer loop
      vertex 44.8 11.2 9.6
      vertex 44.8 4.8 8
      vertex 44.8 4.8 9.6
    endloop
  endfacet
  facet normal 0 0 -1
    outer loop
      vertex 38.4 4.8 9.6
      vertex 44.8 11.2 9.6
      vertex 44.8 4.8 9.6
    endloop
  endfacet
  facet normal -0 0 -1
    outer loop
      vertex 44.8 11.2 9.6
      vertex 38.4 4.8 9.6
      vertex 38.4 11.2 9.6
    endloop
  endfacet
  facet normal 1 -0 0
    outer loop
      vertex 38.4 4.8 9.6
      vertex 38.4 11.2 8
      vertex 38.4 11.2 9.6
    endloop
  endfacet
  facet normal 1 0 0
    outer loop
      vertex 38.4 11.2 8
      vertex 38.4 4.8 9.6
      vertex 38.4 4.8 8
    endloop
  endfacet
  facet normal 0 -1 0
    outer loop
      vertex 38.4 11.2 8
      vertex 44.8 11.2 9.6
      vertex 38.4 11.2 9.6
    endloop
  endfacet
  facet normal 0 -1 -0
    outer loop
      vertex 44.8 11.2 9.6
      vertex 38.4 11.2 8
      vertex 44.8 11.2 8
    endloop
  endfacet
  facet normal 0 1 -0
    outer loop
      vertex 44.8 4.8 8
      vertex 38.4 4.8 9.6
      vertex 44.8 4.8 9.6
    endloop
  endfacet
  facet normal 0 1 0
    outer loop
      vertex 38.4 4.8 9.6
      vertex 44.8 4.8 8
      vertex 38.4 4.8 8
    endloop
  endfacet
  facet normal -1 0 0
    outer loop
      vertex 60.8 4.8 8
      vertex 60.8 11.2 9.6
      vertex 60.8 11.2 8
    endloop
  endfacet
  facet normal -1 -0 0
    outer loop
      vertex 60.8 11.2 9.6
      vertex 60.8 4.8 8
      vertex 60.8 4.8 9.6
    endloop
  endfacet
  facet normal 0 0 -1
    outer loop
      vertex 54.4 4.8 9.6
      vertex 60.8 11.2 9.6
      vertex 60.8 4.8 9.6
    endloop
  endfacet
  facet normal -0 0 -1
    outer loop
      vertex 60.8 11.2 9.6
      vertex 54.4 4.8 9.6
      vertex 54.4 11.2 9.6
    endloop
  endfacet
  facet normal 1 -0 0
    outer loop
      vertex 54.4 4.8 9.6
      vertex 54.4 11.2 8
      vertex 54.4 11.2 9.6
    endloop
  endfacet
  facet normal 1 0 0
    outer loop
      vertex 54.4 11.2 8
      vertex 54.4 4.8 9.6
      vertex 54.4 4.8 8
    endloop
  endfacet
  facet normal 0 -1 0
    outer loop
      vertex 54.4 11.2 8
      vertex 60.8 11.2 9.6
      vertex 54.4 11.2 9.6
    endloop
  endfacet
  facet normal 0 -1 -0
    outer loop
      vertex 60.8 11.2 9.6
      vertex 54.4 11.2 8
      vertex 60.8 11.2 8
    endloop
  endfacet
  facet normal 0 1 -0
    outer loop
      vertex 60.8 4.8 8
      vertex 54.4 4.8 9.6
      vertex 60.8 4.8 9.6
    endloop
  endfacet
  facet normal 0 1 0
    outer loop
      vertex 54.4 4.8 9.6
      vertex 60.8 4.8 8
      vertex 54.4 4.8 8
    endloop
  endfacet
  facet normal 1 -0 0
    outer loop
      vertex 65.6 17.6 9.6
      vertex 65.6 33.6 0
      vertex 65.6 33.6 9.6
    endloop
  endfacet
  facet normal 1 0 0
    outer loop
      vertex 65.6 33.6 0
      vertex 65.6 17.6 9.6
      vertex 65.6 17.6 0
    endloop
  endfacet
  facet normal 0 0 1
    outer loop
      vertex 65.6 33.6 9.6
      vertex 64 32 9.6
      vertex 65.6 17.6 9.6
    endloop
  endfacet
  facet normal 0 0 1
    outer loop
      vertex 65.6 33.6 9.6
      vertex 51.2 32 9.6
      vertex 64 32 9.6
    endloop
  endfacet
  facet normal 0 0 1
    outer loop
      vertex 51.2 32 9.6
      vertex 48 32 9.6
      vertex 51.2 19.2 9.6
    endloop
  endfacet
  facet normal 0 0 1
    outer loop
      vertex 65.6 33.6 9.6
      vertex 48 32 9.6
      vertex 51.2 32 9.6
    endloop
  endfacet
  facet normal -0 0 1
    outer loop
      vertex 33.6 33.6 9.6
      vertex 48 32 9.6
      vertex 65.6 33.6 9.6
    endloop
  endfacet
  facet normal 0 0 1
    outer loop
      vertex 35.2 32 9.6
      vertex 33.6 33.6 9.6
      vertex 35.2 19.2 9.6
    endloop
  endfacet
  facet normal 0 0 1
    outer loop
      vertex 48 32 9.6
      vertex 33.6 33.6 9.6
      vertex 35.2 32 9.6
    endloop
  endfacet
  facet normal -0 0 1
    outer loop
      vertex 64 19.2 9.6
      vertex 65.6 17.6 9.6
      vertex 64 32 9.6
    endloop
  endfacet
  facet normal -0 0 1
    outer loop
      vertex 51.2 19.2 9.6
      vertex 65.6 17.6 9.6
      vertex 64 19.2 9.6
    endloop
  endfacet
  facet normal 0 0 1
    outer loop
      vertex 48 19.2 9.6
      vertex 51.2 19.2 9.6
      vertex 48 32 9.6
    endloop
  endfacet
  facet normal -0 0 1
    outer loop
      vertex 48 19.2 9.6
      vertex 65.6 17.6 9.6
      vertex 51.2 19.2 9.6
    endloop
  endfacet
  facet normal 0 0 1
    outer loop
      vertex 33.6 17.6 9.6
      vertex 48 19.2 9.6
      vertex 35.2 19.2 9.6
    endloop
  endfacet
  facet normal 0 0 1
    outer loop
      vertex 48 19.2 9.6
      vertex 33.6 17.6 9.6
      vertex 65.6 17.6 9.6
    endloop
  endfacet
  facet normal 0 0 1
    outer loop
      vertex 33.6 17.6 9.6
      vertex 35.2 19.2 9.6
      vertex 33.6 33.6 9.6
    endloop
  endfacet
  facet normal 0 0 -1
    outer loop
      vertex 65.6 17.6 0
      vertex 64 19.2 0
      vertex 65.6 33.6 0
    endloop
  endfacet
  facet normal 0 0 -1
    outer loop
      vertex 65.6 17.6 0
      vertex 35.2 19.2 0
      vertex 64 19.2 0
    endloop
  endfacet
  facet normal -0 0 -1
    outer loop
      vertex 35.2 19.2 0
      vertex 33.6 17.6 0
      vertex 35.2 32 0
    endloop
  endfacet
  facet normal 0 0 -1
    outer loop
      vertex 33.6 17.6 0
      vertex 35.2 19.2 0
      vertex 65.6 17.6 0
    endloop
  endfacet
  facet normal 0 0 -1
    outer loop
      vertex 64 32 0
      vertex 65.6 33.6 0
      vertex 64 19.2 0
    endloop
  endfacet
  facet normal 0 0 -1
    outer loop
      vertex 35.2 32 0
      vertex 65.6 33.6 0
      vertex 64 32 0
    endloop
  endfacet
  facet normal 0 0 -1
    outer loop
      vertex 35.2 32 0
      vertex 33.6 33.6 0
      vertex 65.6 33.6 0
    endloop
  endfacet
  facet normal 0 0 -1
    outer loop
      vertex 33.6 33.6 0
      vertex 35.2 32 0
      vertex 33.6 17.6 0
    endloop
  endfacet
  facet normal -1 0 0
    outer loop
      vertex 33.6 17.6 0
      vertex 33.6 33.6 9.6
      vertex 33.6 33.6 0
    endloop
  endfacet
  facet normal -1 -0 0
    outer loop
      vertex 33.6 33.6 9.6
      vertex 33.6 17.6 0
      vertex 33.6 17.6 9.6
    endloop
  endfacet
  facet normal 0 1 -0
    outer loop
      vertex 65.6 33.6 0
      vertex 33.6 33.6 9.6
      vertex 65.6 33.6 9.6
    endloop
  endfacet
  facet normal 0 1 0
    outer loop
      vertex 33.6 33.6 9.6
      vertex 65.6 33.6 0
      vertex 33.6 33.6 0
    endloop
  endfacet
  facet normal 0 -1 0
    outer loop
      vertex 33.6 17.6 0
      vertex 65.6 17.6 9.6
      vertex 33.6 17.6 9.6
    endloop
  endfacet
  facet normal 0 -1 -0
    outer loop
      vertex 65.6 17.6 9.6
      vertex 33.6 17.6 0
      vertex 65.6 17.6 0
    endloop
  endfacet
  facet normal 1 -0 0
    outer loop
      vertex 48 19.2 11.2
      vertex 48 32 9.6
      vertex 48 32 11.2
    endloop
  endfacet
  facet normal 1 0 0
    outer loop
      vertex 48 32 9.6
      vertex 48 19.2 11.2
      vertex 48 19.2 9.6
    endloop
  endfacet
  facet normal -0 0 1
    outer loop
      vertex 35.2 32 11.2
      vertex 48 19.2 11.2
      vertex 48 32 11.2
    endloop
  endfacet
  facet normal 0 0 1
    outer loop
      vertex 48 19.2 11.2
      vertex 35.2 32 11.2
      vertex 35.2 19.2 11.2
    endloop
  endfacet
  facet normal -1 0 0
    outer loop
      vertex 35.2 19.2 9.6
      vertex 35.2 32 11.2
      vertex 35.2 32 9.6
    endloop
  endfacet
  facet normal -1 -0 0
    outer loop
      vertex 35.2 32 11.2
      vertex 35.2 19.2 9.6
      vertex 35.2 19.2 11.2
    endloop
  endfacet
  facet normal 0 1 -0
    outer loop
      vertex 48 32 9.6
      vertex 35.2 32 11.2
      vertex 48 32 11.2
    endloop
  endfacet
  facet normal 0 1 0
    outer loop
      vertex 35.2 32 11.2
      vertex 48 32 9.6
      vertex 35.2 32 9.6
    endloop
  endfacet
  facet normal 0 -1 0
    outer loop
      vertex 35.2 19.2 9.6
      vertex 48 19.2 11.2
      vertex 35.2 19.2 11.2
    endloop
  endfacet
  facet normal 0 -1 -0
    outer loop
      vertex 48 19.2 11.2
      vertex 35.2 19.2 9.6
      vertex 48 19.2 9.6
    endloop
  endfacet
  facet normal 1 -0 0
    outer loop
      vertex 64 19.2 11.2
      vertex 64 32 9.6
      vertex 64 32 11.2
    endloop
  endfacet
  facet normal 1 0 0
    outer loop
      vertex 64 32 9.6
      vertex 64 19.2 11.2
      vertex 64 19.2 9.6
    endloop
  endfacet
  facet normal -0 0 1
    outer loop
      vertex 51.2 32 11.2
      vertex 64 19.2 11.2
      vertex 64 32 11.2
    endloop
  endfacet
  facet normal 0 0 1
    outer loop
      vertex 64 19.2 11.2
      vertex 51.2 32 11.2
      vertex 51.2 19.2 11.2
    endloop
  endfacet
  facet normal -1 0 0
    outer loop
      vertex 51.2 19.2 9.6
      vertex 51.2 32 11.2
      vertex 51.2 32 9.6
    endloop
  endfacet
  facet normal -1 -0 0
    outer loop
      vertex 51.2 32 11.2
      vertex 51.2 19.2 9.6
      vertex 51.2 19.2 11.2
    endloop
  endfacet
  facet normal 0 1 -0
    outer loop
      vertex 64 32 9.6
      vertex 51.2 32 11.2
      vertex 64 32 11.2
    endloop
  endfacet
  facet normal 0 1 0
    outer loop
      vertex 51.2 32 11.2
      vertex 64 32 9.6
      vertex 51.2 32 9.6
    endloop
  endfacet
  facet normal 0 -1 0
    outer loop
      vertex 51.2 19.2 9.6
      vertex 64 19.2 11.2
      vertex 51.2 19.2 11.2
    endloop
  endfacet
  facet normal 0 -1 -0
    outer loop
      vertex 64 19.2 11.2
      vertex 51.2 19.2 9.6
      vertex 64 19.2 9.6
    endloop
  endfacet
  facet normal -1 0 0
    outer loop
      vertex 64 19.2 0
      vertex 64 32 8
      vertex 64 32 0
    endloop
  endfacet
  facet normal -1 -0 0
    outer loop
      vertex 64 32 8
      vertex 64 19.2 0
      vertex 64 19.2 8
    endloop
  endfacet
  facet normal 0 0 -1
    outer loop
      vertex 64 19.2 8
      vertex 60.8 22.4 8
      vertex 64 32 8
    endloop
  endfacet
  facet normal 0 0 -1
    outer loop
      vertex 64 19.2 8
      vertex 54.4 22.4 8
      vertex 60.8 22.4 8
    endloop
  endfacet
  facet normal 0 0 -1
    outer loop
      vertex 54.4 22.4 8
      vertex 44.8 22.4 8
      vertex 54.4 28.8 8
    endloop
  endfacet
  facet normal 0 0 -1
    outer loop
      vertex 64 19.2 8
      vertex 44.8 22.4 8
      vertex 54.4 22.4 8
    endloop
  endfacet
  facet normal 0 0 -1
    outer loop
      vertex 35.2 19.2 8
      vertex 44.8 22.4 8
      vertex 64 19.2 8
    endloop
  endfacet
  facet normal -0 0 -1
    outer loop
      vertex 38.4 22.4 8
      vertex 35.2 19.2 8
      vertex 38.4 28.8 8
    endloop
  endfacet
  facet normal -0 0 -1
    outer loop
      vertex 44.8 22.4 8
      vertex 35.2 19.2 8
      vertex 38.4 22.4 8
    endloop
  endfacet
  facet normal 0 0 -1
    outer loop
      vertex 60.8 28.8 8
      vertex 64 32 8
      vertex 60.8 22.4 8
    endloop
  endfacet
  facet normal 0 0 -1
    outer loop
      vertex 54.4 28.8 8
      vertex 64 32 8
      vertex 60.8 28.8 8
    endloop
  endfacet
  facet normal 0 0 -1
    outer loop
      vertex 44.8 28.8 8
      vertex 54.4 28.8 8
      vertex 44.8 22.4 8
    endloop
  endfacet
  facet normal 0 0 -1
    outer loop
      vertex 44.8 28.8 8
      vertex 64 32 8
      vertex 54.4 28.8 8
    endloop
  endfacet
  facet normal 0 0 -1
    outer loop
      vertex 35.2 32 8
      vertex 44.8 28.8 8
      vertex 38.4 28.8 8
    endloop
  endfacet
  facet normal 0 0 -1
    outer loop
      vertex 44.8 28.8 8
      vertex 35.2 32 8
      vertex 64 32 8
    endloop
  endfacet
  facet normal 0 0 -1
    outer loop
      vertex 35.2 32 8
      vertex 38.4 28.8 8
      vertex 35.2 19.2 8
    endloop
  endfacet
  facet normal 1 -0 0
    outer loop
      vertex 35.2 19.2 8
      vertex 35.2 32 0
      vertex 35.2 32 8
    endloop
  endfacet
  facet normal 1 0 0
    outer loop
      vertex 35.2 32 0
      vertex 35.2 19.2 8
      vertex 35.2 19.2 0
    endloop
  endfacet
  facet normal 0 -1 0
    outer loop
      vertex 35.2 32 0
      vertex 64 32 8
      vertex 35.2 32 8
    endloop
  endfacet
  facet normal 0 -1 -0
    outer loop
      vertex 64 32 8
      vertex 35.2 32 0
      vertex 64 32 0
    endloop
  endfacet
  facet normal 0 1 -0
    outer loop
      vertex 64 19.2 0
      vertex 35.2 19.2 8
      vertex 64 19.2 8
    endloop
  endfacet
  facet normal 0 1 0
    outer loop
      vertex 35.2 19.2 8
      vertex 64 19.2 0
      vertex 35.2 19.2 0
    endloop
  endfacet
  facet normal -1 0 0
    outer loop
      vertex 44.8 22.4 8
      vertex 44.8 28.8 9.6
      vertex 44.8 28.8 8
    endloop
  endfacet
  facet normal -1 -0 0
    outer loop
      vertex 44.8 28.8 9.6
      vertex 44.8 22.4 8
      vertex 44.8 22.4 9.6
    endloop
  endfacet
  facet normal 0 0 -1
    outer loop
      vertex 38.4 22.4 9.6
      vertex 44.8 28.8 9.6
      vertex 44.8 22.4 9.6
    endloop
  endfacet
  facet normal -0 0 -1
    outer loop
      vertex 44.8 28.8 9.6
      vertex 38.4 22.4 9.6
      vertex 38.4 28.8 9.6
    endloop
  endfacet
  facet normal 1 -0 0
    outer loop
      vertex 38.4 22.4 9.6
      vertex 38.4 28.8 8
      vertex 38.4 28.8 9.6
    endloop
  endfacet
  facet normal 1 0 0
    outer loop
      vertex 38.4 28.8 8
      vertex 38.4 22.4 9.6
      vertex 38.4 22.4 8
    endloop
  endfacet
  facet normal 0 -1 0
    outer loop
      vertex 38.4 28.8 8
      vertex 44.8 28.8 9.6
      vertex 38.4 28.8 9.6
    endloop
  endfacet
  facet normal 0 -1 -0
    outer loop
      vertex 44.8 28.8 9.6
      vertex 38.4 28.8 8
      vertex 44.8 28.8 8
    endloop
  endfacet
  facet normal 0 1 -0
    outer loop
      vertex 44.8 22.4 8
      vertex 38.4 22.4 9.6
      vertex 44.8 22.4 9.6
    endloop
  endfacet
  facet normal 0 1 0
    outer loop
      vertex 38.4 22.4 9.6
      vertex 44.8 22.4 8
      vertex 38.4 22.4 8
    endloop
  endfacet
  facet normal -1 0 0
    outer loop
      vertex 60.8 22.4 8
      vertex 60.8 28.8 9.6
      vertex 60.8 28.8 8
    endloop
  endfacet
  facet normal -1 -0 0
    outer loop
      vertex 60.8 28.8 9.6
      vertex 60.8 22.4 8
      vertex 60.8 22.4 9.6
    endloop
  endfacet
  facet normal 0 0 -1
    outer loop
      vertex 54.4 22.4 9.6
      vertex 60.8 28.8 9.6
      vertex 60.8 22.4 9.6
    endloop
  endfacet
  facet normal -0 0 -1
    outer loop
      vertex 60.8 28.8 9.6
      vertex 54.4 22.4 9.6
      vertex 54.4 28.8 9.6
    endloop
  endfacet
  facet normal 1 -0 0
    outer loop
      vertex 54.4 22.4 9.6
      vertex 54.4 28.8 8
      vertex 54.4 28.8 9.6
    endloop
  endfacet
  facet normal 1 0 0
    outer loop
      vertex 54.4 28.8 8
      vertex 54.4 22.4 9.6
      vertex 54.4 22.4 8
    endloop
  endfacet
  facet normal 0 -1 0
    outer loop
      vertex 54.4 28.8 8
      vertex 60.8 28.8 9.6
      vertex 54.4 28.8 9.6
    endloop
  endfacet
  facet normal 0 -1 -0
    outer loop
      vertex 60.8 28.8 9.6
      vertex 54.4 28.8 8
      vertex 60.8 28.8 8
    endloop
  endfacet
  facet normal 0 1 -0
    outer loop
      vertex 60.8 22.4 8
      vertex 54.4 22.4 9.6
      vertex 60.8 22.4 9.6
    endloop
  endfacet
  facet normal 0 1 0
    outer loop
      vertex 54.4 22.4 9.6
      vertex 60.8 22.4 8
      vertex 54.4 22.4 8
    endloop
  endfacet
endsolid OpenSCAD_Model
